<?xml version="1.0" encoding="utf-8"?>
<!-- Generator: Adobe Illustrator 19.0.0, SVG Export Plug-In . SVG Version: 6.00 Build 0)  -->
<svg version="1.1" xmlns="http://www.w3.org/2000/svg" xmlns:xlink="http://www.w3.org/1999/xlink" x="0px" y="0px"
	 viewBox="0 0 512 512" style="enable-background:new 0 0 512 512;" xml:space="preserve">
<style type="text/css">
	.st0{fill:#8BBF4C;}
	.st1{fill:#669F35;}
	.st2{fill:#669F34;stroke:#669F34;stroke-miterlimit:10;}
	.st3{fill:#FFFFFF;stroke:#FFFFFF;stroke-miterlimit:10;}
	.st4{fill:none;stroke:#669F34;stroke-width:7;stroke-linecap:round;stroke-miterlimit:10;}
	.st5{fill:none;stroke:#FFFFFF;stroke-width:7;stroke-linecap:round;stroke-miterlimit:10;}
	.st6{display:none;}
	.st7{display:inline;}
</style>
<g id="Calque_8">
	<g id="Calque_5">
		<g id="XMLID_1_">
			<path id="XMLID_29_" class="st0" d="M256,500L256,500C121.2,500,12,390.8,12,256v0C12,121.2,121.2,12,256,12h0
				c134.8,0,244,109.2,244,244v0C500,390.8,390.8,500,256,500z"/>
			<path id="XMLID_26_" class="st1" d="M256,500.5c0,0-1.5,0-4.4-0.1c-1.4,0-3.3-0.1-5.4-0.1c-1.1,0-2.2,0-3.5-0.1
				c-1.2-0.1-2.6-0.2-4-0.3c-1.4-0.1-2.9-0.2-4.5-0.3c-1.6-0.1-3.2-0.2-4.9-0.5c-3.4-0.5-7.2-0.9-11.2-1.5c-2-0.4-4.1-0.7-6.2-1.1
				c-1.1-0.2-2.2-0.4-3.3-0.6c-1.1-0.2-2.2-0.4-3.4-0.7c-2.3-0.5-4.6-1.1-7-1.6c-1.2-0.3-2.4-0.5-3.7-0.9c-1.2-0.3-2.5-0.7-3.7-1.1
				c-2.5-0.7-5.1-1.5-7.8-2.2c-2.6-0.9-5.3-1.8-8.1-2.7c-2.8-0.9-5.5-2-8.3-3.1c-2.8-1.1-5.7-2.2-8.6-3.5
				c-11.6-5-23.8-11.4-36.1-19.3c-12.3-8-24.7-17.5-36.6-28.9c-11.9-11.4-23.3-24.5-33.5-39.4c-10.1-15-19.1-31.7-26.1-49.9
				c-1-2.2-1.7-4.6-2.5-6.9c-0.8-2.3-1.6-4.7-2.4-7c-0.7-2.4-1.4-4.8-2.1-7.2c-0.3-1.2-0.7-2.4-1.1-3.6c-0.3-1.2-0.6-2.4-0.9-3.7
				c-0.6-2.5-1.2-4.9-1.8-7.4c-0.6-2.5-1-5-1.5-7.5c-0.2-1.3-0.5-2.5-0.7-3.8l-0.4-1.9l-0.3-1.9c-0.3-2.6-0.7-5.1-1-7.7
				c-0.4-2.6-0.6-5.2-0.8-7.8c-0.2-2.6-0.5-5.2-0.6-7.8c-0.1-2.6-0.2-5.3-0.3-7.9c0-1.3-0.1-2.7-0.1-4c0-0.1,0-0.4,0-0.6l0-0.5l0-1
				l0-2c0.1-2.6,0.1-5.3,0.2-7.9c0.1-2.7,0.4-5.4,0.5-8.1c0.3-5.4,1.1-10.8,1.7-16.2c1.7-10.8,3.7-21.7,6.9-32.4
				c1.4-5.4,3.3-10.7,5.1-16c1-2.6,2-5.3,3-7.9l1.5-4l1.7-3.9c9.1-20.8,21.4-40.7,36.3-58.7c1.9-2.2,3.8-4.4,5.7-6.7
				c1.9-2.2,4-4.3,6-6.4c1-1.1,2-2.2,3-3.2l3.2-3.1l3.2-3.1c1.1-1,2.1-2.1,3.3-3c2.2-1.9,4.5-3.9,6.7-5.8c2.3-1.9,4.6-3.7,7-5.6
				c1.2-0.9,2.3-1.9,3.5-2.8l3.6-2.6l3.6-2.6c1.2-0.9,2.4-1.8,3.7-2.5c2.5-1.6,5-3.2,7.5-4.9c2.5-1.6,5.2-3,7.8-4.6
				c1.3-0.7,2.6-1.5,3.9-2.2l4-2.1l4-2.1l2-1c0.7-0.3,1.4-0.6,2-1c2.7-1.3,5.5-2.5,8.2-3.8c2.8-1.2,5.6-2.3,8.4-3.4
				c1.4-0.6,2.8-1.1,4.2-1.7l4.3-1.5l4.3-1.5c1.4-0.5,2.9-1,4.3-1.4l8.7-2.5c2.9-0.8,5.9-1.4,8.8-2.1l4.4-1l4.5-0.8l4.5-0.8
				c1.5-0.3,3-0.6,4.5-0.7l9-1.2c0.8-0.1,1.5-0.2,2.3-0.3l2.3-0.2l4.5-0.4l4.5-0.4c1.5-0.1,3-0.1,4.6-0.2L256,8l9.1,0.2
				c1.5,0.1,3,0,4.5,0.1l4.6,0.3l4.6,0.3l2.3,0.2c0.8,0.1,1.5,0.2,2.3,0.3l9.1,1.1c1.5,0.2,3,0.5,4.5,0.7l4.5,0.8l4.5,0.8l4.4,1
				c3,0.7,5.9,1.3,8.9,2.1l8.8,2.4c1.5,0.4,2.9,0.9,4.3,1.3l4.3,1.4l4.3,1.4c1.4,0.5,2.8,1.1,4.2,1.6c2.8,1.1,5.7,2.2,8.4,3.3
				c2.8,1.2,5.5,2.5,8.3,3.7c0.7,0.3,1.4,0.6,2.1,0.9l2,1l4,2l4,2c1.3,0.7,2.6,1.5,3.9,2.2c2.6,1.5,5.3,2.9,7.8,4.5
				c2.5,1.6,5.1,3.2,7.6,4.8c1.3,0.8,2.5,1.7,3.7,2.5l3.7,2.6l3.7,2.6c1.2,0.9,2.4,1.8,3.6,2.7c2.3,1.9,4.8,3.6,7,5.5
				c2.3,1.9,4.5,3.9,6.8,5.8c1.1,0.9,2.2,2,3.3,3l3.2,3.1l3.2,3.1c1.1,1,2.1,2.1,3.1,3.2c2,2.2,4.1,4.2,6.1,6.4
				c1.9,2.2,3.9,4.5,5.8,6.7c15.2,18.1,27.7,38,37,58.9l1.8,3.9l1.6,4c1,2.7,2.1,5.3,3.1,8c1.8,5.4,3.8,10.7,5.2,16.2
				c3.2,10.8,5.3,21.8,7,32.7c0.7,5.5,1.5,10.9,1.7,16.4c0.2,2.7,0.4,5.4,0.5,8.1c0.1,2.7,0.1,5.4,0.2,8.1l0,2l0,1l0,0.5
				c0,0.1,0,0.6,0,0.6c0,1.3-0.1,2.6-0.1,3.9c-0.1,2.6-0.2,5.2-0.3,7.8c-0.2,2.7-0.4,5.3-0.6,8c-0.2,2.7-0.4,5.3-0.8,7.9
				c-2.6,20.8-7.5,40.8-14.8,59.1c-7.2,18.4-16.4,35.2-26.7,50.2c-10.3,15-22,28.1-34,39.5c-12.1,11.3-24.6,20.8-37,28.7
				c-12.4,7.9-24.7,14.2-36.4,19.1c-2.9,1.3-5.8,2.4-8.7,3.5c-2.8,1.1-5.6,2.2-8.4,3c-2.8,0.9-5.5,1.8-8.1,2.6
				c-2.7,0.7-5.3,1.4-7.8,2.1c-1.3,0.3-2.5,0.7-3.8,1c-1.2,0.3-2.5,0.6-3.7,0.8c-2.4,0.5-4.8,1.1-7.1,1.6c-1.1,0.3-2.3,0.5-3.4,0.7
				c-1.1,0.2-2.2,0.4-3.3,0.6c-2.2,0.4-4.2,0.7-6.3,1.1c-4,0.6-7.8,1-11.2,1.4c-1.7,0.2-3.4,0.3-4.9,0.4c-1.6,0.1-3.1,0.2-4.5,0.3
				c-1.4,0.1-2.7,0.2-4,0.3c-1.2,0.1-2.4,0.1-3.5,0.1c-2.1,0-3.9,0.1-5.4,0.1C257.5,500.5,256,500.5,256,500.5z M256,499.5
				c0,0,1.5,0,4.4-0.1c1.4,0,3.2-0.1,5.4-0.2c1.1,0,2.2,0,3.5-0.1c1.2-0.1,2.5-0.2,3.9-0.3c11.1-0.8,27.6-2.6,47.7-8.5
				c2.5-0.7,5.1-1.5,7.7-2.3c2.6-0.9,5.3-1.8,8-2.8c2.7-0.9,5.5-2.1,8.2-3.2c2.8-1.2,5.7-2.2,8.5-3.6c11.5-5.1,23.4-11.7,35.4-19.8
				c12-8.1,24-17.9,35.4-29.4c11.4-11.5,22.4-24.6,32-39.5c9.6-14.9,17.9-31.5,24.4-49.3c0.9-2.2,1.5-4.5,2.3-6.8
				c0.7-2.3,1.5-4.6,2.2-6.9c0.6-2.3,1.3-4.7,1.9-7c0.3-1.2,0.6-2.4,1-3.5c0.3-1.2,0.5-2.4,0.8-3.6c0.5-2.4,1.1-4.8,1.6-7.2
				c0.5-2.4,0.9-4.9,1.3-7.3c0.2-1.2,0.4-2.5,0.6-3.7l0.3-1.8l0.2-1.9c0.3-2.5,0.6-5,0.9-7.5c0.4-2.5,0.5-5,0.7-7.5
				c0.2-2.5,0.4-5,0.5-7.6c0-2.6,0.1-5.2,0.1-7.8c0-1.3,0-2.6,0.1-3.9c0-0.3,0-0.2,0-0.4l0-0.5l0-1l-0.1-1.9
				c-0.1-2.6-0.1-5.2-0.2-7.8c-0.1-2.6-0.4-5.2-0.6-7.8c-0.3-5.2-1.1-10.4-1.8-15.7c-1.7-10.4-3.8-21-6.9-31.3
				c-1.4-5.2-3.3-10.3-5-15.5c-0.9-2.6-2-5.1-3-7.6L476,163l-1.7-3.7c-8.8-20.1-20.7-39.3-35.2-56.7c-1.8-2.1-3.7-4.3-5.5-6.4
				c-1.9-2.1-3.9-4.1-5.8-6.2c-1-1-1.9-2.1-2.9-3.1l-3.1-3l-3.1-3c-1-1-2-2-3.1-2.9c-2.2-1.9-4.3-3.8-6.5-5.7
				c-2.2-1.9-4.5-3.6-6.7-5.4c-1.1-0.9-2.2-1.8-3.4-2.7l-3.5-2.5l-3.5-2.5c-1.2-0.8-2.3-1.7-3.6-2.5c-2.4-1.6-4.9-3.1-7.3-4.7
				c-2.4-1.5-5-2.9-7.5-4.4c-1.3-0.7-2.5-1.5-3.8-2.2l-3.9-2l-3.9-2l-1.9-1c-0.6-0.3-1.3-0.6-2-0.9c-2.6-1.2-5.3-2.4-8-3.6
				c-2.7-1.2-5.4-2.2-8.1-3.3c-1.4-0.5-2.7-1.1-4.1-1.6l-4.1-1.4l-4.2-1.4c-1.4-0.5-2.8-1-4.2-1.3l-8.4-2.4
				c-2.8-0.8-5.7-1.4-8.6-2.1l-4.3-1l-4.3-0.8l-4.3-0.8c-1.4-0.3-2.9-0.6-4.3-0.7l-8.7-1.2c-0.7-0.1-1.5-0.2-2.2-0.3l-2.2-0.2
				l-4.4-0.4l-4.4-0.4c-1.4-0.1-3-0.1-4.5-0.2L256,16l-8.8,0.2c-1.5,0.1-2.9,0-4.4,0.1l-4.4,0.3l-4.4,0.3l-2.2,0.2
				c-0.7,0.1-1.5,0.2-2.2,0.3l-8.8,1.1c-1.5,0.1-2.9,0.5-4.4,0.7l-4.3,0.8l-4.3,0.8l-4.3,1c-2.9,0.7-5.8,1.2-8.6,2l-8.5,2.4
				c-1.4,0.4-2.8,0.8-4.2,1.3l-4.2,1.4l-4.2,1.4c-1.4,0.5-2.7,1.1-4.1,1.6c-2.7,1.1-5.5,2.1-8.2,3.2c-2.7,1.2-5.3,2.4-8,3.6
				c-0.7,0.3-1.3,0.6-2,0.9l-2,1l-3.9,2l-3.9,2c-1.3,0.7-2.5,1.4-3.8,2.2c-2.5,1.5-5.1,2.8-7.6,4.4c-2.5,1.6-4.9,3.1-7.4,4.7
				c-1.2,0.8-2.4,1.6-3.6,2.4l-3.6,2.5l-3.6,2.5c-1.2,0.9-2.3,1.8-3.4,2.7c-2.3,1.8-4.6,3.5-6.8,5.4c-2.2,1.9-4.4,3.8-6.6,5.6
				c-1.1,0.9-2.2,1.9-3.2,2.9l-3.1,3l-3.1,3c-1,1-2,2.1-3,3.1c-2,2.1-4,4.1-5.9,6.2c-1.9,2.2-3.8,4.3-5.6,6.5
				c-14.7,17.4-26.8,36.7-35.9,57l-1.7,3.8l-1.5,3.9c-1,2.6-2.1,5.1-3,7.7c-1.7,5.2-3.7,10.3-5.1,15.6c-3.2,10.4-5.3,21.1-7,31.6
				c-0.7,5.3-1.5,10.6-1.8,15.8c-0.2,2.6-0.5,5.2-0.6,7.9c-0.1,2.7-0.2,5.3-0.2,7.9l-0.1,2l0,1l0,0.5c0,0.2,0,0.2,0,0.4
				c0,1.3,0,2.6,0.1,3.9c0,2.6,0.1,5.2,0.1,7.8c0.1,2.6,0.3,5.1,0.5,7.7c0.2,2.6,0.3,5.1,0.7,7.6c0.3,2.5,0.6,5.1,0.9,7.6l0.2,1.9
				l0.3,1.9c0.2,1.2,0.4,2.5,0.6,3.7c0.5,2.5,0.8,5,1.3,7.4c0.5,2.4,1.1,4.9,1.6,7.3c0.3,1.2,0.5,2.4,0.8,3.6c0.3,1.2,0.7,2.4,1,3.6
				c0.7,2.4,1.3,4.7,2,7.1c0.7,2.3,1.5,4.6,2.3,6.9c0.8,2.3,1.4,4.6,2.4,6.8c6.7,18,15.2,34.7,25,49.6c9.8,15,20.9,28.1,32.5,39.6
				c11.6,11.4,23.8,21.1,35.9,29.2c12.1,8,24.2,14.6,35.7,19.6c2.8,1.4,5.7,2.4,8.6,3.6c2.8,1.1,5.5,2.2,8.3,3.1
				c2.7,0.9,5.4,1.8,8,2.7c2.6,0.8,5.2,1.5,7.7,2.2c20.2,5.7,36.6,7.4,47.8,8.1c1.4,0.1,2.7,0.2,3.9,0.3c1.2,0.1,2.4,0.1,3.5,0.1
				c2.1,0.1,3.9,0.1,5.4,0.1C254.5,499.5,256,499.5,256,499.5z"/>
		</g>
	</g>
	<g id="LOGO_-_copie">
		<g id="HP_-_copie_3">
			<g id="Groupe_logo_4_">
				<path id="XMLID_15_" class="st2" d="M67.6,249.3l20.3,96.2c0.1,0.5,0.7,0.9,1.2,0.8l52.5-11.1c0.6-0.1,0.9-0.7,0.8-1.2
					l-20.3-96.2c-0.1-0.5-0.7-0.9-1.2-0.8l-52.5,11.1C67.8,248.3,67.4,248.8,67.6,249.3z"/>
				<path id="XMLID_14_" class="st2" d="M134.7,241.5l19.4,92c0.1,0.3,0.2,0.5,0.4,0.6L313,435.3c0.7,0.5,1.7-0.2,1.5-1L240.8,84.6
					c-0.2-0.9-1.3-1.1-1.8-0.3L134.9,240.7C134.7,240.9,134.7,241.2,134.7,241.5z"/>
			</g>
		</g>
		<g id="HP_-_copie">
			<g id="Groupe_logo_2_">
				<path id="XMLID_10_" class="st3" d="M66.9,247.9l19.3,91.4c0.1,0.5,0.6,0.8,1.1,0.7l47-9.9c0.5-0.1,0.8-0.6,0.7-1.1l-19.3-91.4
					c-0.1-0.5-0.6-0.8-1.1-0.7l-47,9.9C67.2,246.9,66.8,247.4,66.9,247.9z"/>
				<path id="XMLID_9_" class="st3" d="M133,233.5l19.5,92.5c0.1,0.2,0.2,0.5,0.4,0.6L305,424.1c0.7,0.5,1.6-0.2,1.4-1L234.7,82.5
					c-0.2-0.8-1.3-1-1.7-0.3l-99.8,150.6C133,232.9,133,233.2,133,233.5z"/>
			</g>
		</g>
		<g id="ONDES_-_copie_2">
			<path id="XMLID_18_" class="st4" d="M404.4,410c74.7-114.6,42.4-267.8-72.2-342.5"/>
			<path id="XMLID_17_" class="st4" d="M366.2,367.2c53.5-82,30.4-191.7-51.7-245.1"/>
			<path id="XMLID_16_" class="st4" d="M326.8,319c29.9-45.8,17-107.1-28.9-137"/>
		</g>
		<g id="ONDES_-_copie">
			<path id="XMLID_8_" class="st5" d="M399,404.6c74.7-114.6,42.4-267.8-72.2-342.5"/>
			<path id="XMLID_4_" class="st5" d="M360.7,361.8c53.5-82,30.4-191.7-51.7-245.1"/>
			<path id="XMLID_3_" class="st5" d="M321.3,313.6c29.9-45.8,17-107.1-28.9-137"/>
		</g>
	</g>
</g>
<g id="LOGO" class="st6">
	<g id="HP" class="st7">
		<g id="Groupe_logo_1_">
			<path id="XMLID_13_" class="st3" d="M63.6,207v98c0,0.6,0.4,1,1,1H115c0.6,0,1-0.4,1-1v-98c0-0.6-0.4-1-1-1H64.6
				C64.1,206,63.6,206.4,63.6,207z"/>
			<path id="XMLID_5_" class="st3" d="M134.6,206.4v99.2c0,0.3,0.1,0.5,0.3,0.7l135,133c0.6,0.6,1.7,0.2,1.7-0.7V73.4
				c0-0.9-1.1-1.3-1.7-0.7l-135,133C134.7,205.9,134.6,206.2,134.6,206.4z"/>
		</g>
	</g>
	<g id="ONDES" class="st7">
		<path id="XMLID_2_" class="st5" d="M370.6,439.6c101.5-101.5,101.5-265.7,0-367.2"/>
		<path id="XMLID_6_" class="st5" d="M340.6,387.4c72.6-72.6,72.6-190.2,0-262.8"/>
		<path id="XMLID_7_" class="st5" d="M310.6,329.4c40.6-40.6,40.6-106.3,0-146.8"/>
	</g>
</g>
</svg>
